<svg xmlns="http://www.w3.org/2000/svg" fill="none" viewBox="0.09 12 168.48 56.16">
<path d="M25.2178 37.126H14.8723V40.0819H25.2178V51.9053H8.96055L3.04883 45.9936V14.957H14.8723V25.3025H25.2178V37.126Z" fill="white"/>
<path d="M69.5539 51.9045H34.0836L28.1719 45.9928V25.3018H39.9953V40.0811H42.9512V25.3018H54.7746V40.0811H57.7305V25.3018H69.5539V51.9045Z" fill="white"/>
<path d="M84.3352 25.3018H72.5117V51.9045H84.3352V25.3018Z" fill="white"/>
<path d="M84.3352 14.957H72.5117V22.3467H84.3352V14.957Z" fill="white"/>
<path d="M109.46 37.126H99.1145V40.0819H109.46V51.9053H93.2027L87.291 45.9936V14.957H99.1145V25.3025H109.46V37.126Z" fill="white"/>
<path d="M136.061 37.1252H124.238V40.0811H136.061V51.9045H118.326L112.414 45.9928V31.2135L118.326 25.3018H136.061V37.1252Z" fill="white"/>
<path d="M165.62 51.9053H153.797V37.126H150.841V51.9053H139.018V14.957H150.841V25.3025H159.709L165.62 31.2143V51.9053Z" fill="white"/>
<path d="M161.186 22.3455H153.797V12H137.569L130.105 22.3455H116.848L112.415 26.7793V22.3455H102.069V12H69.5546V22.3455H23.8126L16.349 12H0.0917969V47.4703L20.7828 68.1614H41.4739V62.2496L47.3856 68.1614H87.2897V62.2496L93.2014 68.1614H112.415V62.2496L118.326 68.1614H155.275L168.576 54.86V29.7352L161.186 22.3455ZM25.2166 37.1248H14.8711V40.0807H25.2166V51.9041H8.95938L3.04766 45.9924V14.9559H14.8711V25.3014H25.2166V37.1248ZM69.5546 51.9041H34.0842L28.1725 45.9924V25.3014H39.9959V40.0807H42.9518V25.3014H54.7752V40.0807H57.7311V25.3014H69.5546V51.9041ZM84.3339 51.9041H72.5104V25.3014H84.3339V51.9041ZM84.3339 22.3455H72.5104V14.9559H84.3339V22.3455ZM109.459 37.1248H99.1132V40.0807H109.459V51.9041H93.2014L87.2897 45.9924V14.9559H99.1132V25.3014H109.459V37.1248ZM136.061 37.1248H124.238V40.0807H136.061V51.9041H118.326L112.415 45.9924V31.2131L118.326 25.3014H136.061V37.1248ZM165.62 51.9041H153.797V37.1248H150.841V51.9041H139.017V14.9559H150.841V25.3014H159.708L165.62 31.2131V51.9041Z" fill="#5F3EA9"/>
</svg>