<svg xmlns="http://www.w3.org/2000/svg" fill="none" viewBox="0.29 20.93 169.41 51.06">
<path d="M105.382 60.8609C95.5399 68.111 81.2768 71.9902 68.9787 71.9902C51.7512 71.9902 36.2515 65.6209 24.5124 55.0167C23.5976 54.1867 24.4107 53.0517 25.5287 53.6954C38.1826 61.0642 53.8517 65.4854 70.012 65.4854C80.9211 65.4854 92.9143 63.2324 103.942 58.5402C105.619 57.8456 107.008 59.6412 105.382 60.8609Z" fill="#FE9900"/>
<path d="M109.464 56.1687C108.21 54.5595 101.147 55.4065 97.9788 55.7791C97.0133 55.8977 96.8608 55.0507 97.7417 54.4578C103.366 50.494 112.598 51.6459 113.682 52.9672C114.766 54.3054 113.394 63.5544 108.109 67.9756C107.296 68.6532 106.516 68.2975 106.889 67.3997C108.075 64.4352 110.734 57.7949 109.464 56.1687Z" fill="#FE9900"/>
<path d="M98.1973 26.5071V22.6618C98.1973 22.0859 98.6378 21.6963 99.1629 21.6963H116.39C116.949 21.6963 117.39 22.1028 117.39 22.6618V25.9651C117.39 26.5241 116.916 27.2355 116.086 28.3874L107.175 41.126C110.495 41.0413 114.002 41.5325 117 43.2265C117.678 43.6161 117.864 44.1751 117.915 44.7171V48.8165C117.915 49.3755 117.288 50.0362 116.645 49.6974C111.342 46.9193 104.296 46.6144 98.4345 49.7313C97.8416 50.0531 97.2148 49.4094 97.2148 48.8504V44.9543C97.2148 44.3275 97.2148 43.2603 97.8416 42.3117L108.192 27.4727H99.1968C98.6378 27.4727 98.1973 27.0831 98.1973 26.5071Z" fill="white"/>
<path d="M35.3379 50.5274H30.1036C29.5954 50.4936 29.2058 50.1209 29.1719 49.6296V22.7296C29.1719 22.1876 29.6292 21.7641 30.1882 21.7641H35.0838C35.592 21.781 35.9985 22.1706 36.0324 22.6619V26.1853H36.134C37.4045 22.7805 39.8099 21.2051 43.0284 21.2051C46.3147 21.2051 48.3644 22.7974 49.8381 26.1853C51.1086 22.7805 53.9883 21.2051 57.0713 21.2051C59.2735 21.2051 61.6789 22.1198 63.1357 24.1526C64.7958 26.4225 64.457 29.7087 64.457 32.5885V49.5619C64.457 50.104 63.9996 50.5274 63.4406 50.5274H58.2063C57.6811 50.4936 57.2577 50.0701 57.2577 49.5619V35.2988C57.2577 34.1638 57.3593 31.3349 57.1052 30.2508C56.7156 28.4383 55.5468 27.9301 54.0222 27.9301C52.7517 27.9301 51.4304 28.7771 50.8884 30.1322C50.3463 31.4874 50.3971 33.7573 50.3971 35.2818V49.5449C50.3971 50.087 49.9398 50.5105 49.3808 50.5105H44.1634C43.6383 50.4766 43.2148 50.0531 43.2148 49.5449V35.2818C43.2148 32.2835 43.706 27.8623 39.9793 27.8623C36.2187 27.8623 36.3542 32.165 36.3542 35.2818V49.5449C36.3542 50.087 35.8969 50.5274 35.3379 50.5274Z" fill="white"/>
<path d="M132.247 21.1885C140.022 21.1885 144.24 27.8627 144.24 36.3663C144.24 44.5651 139.582 51.0868 132.247 51.0868C124.607 51.0868 120.457 44.4126 120.457 36.0783C120.44 27.7102 124.658 21.1885 132.247 21.1885ZM132.281 26.6938C128.419 26.6938 128.182 31.9451 128.182 35.2314C128.182 38.5176 128.131 45.5476 132.247 45.5476C136.312 45.5476 136.499 39.8897 136.499 36.4341C136.499 34.1642 136.397 31.4538 135.72 29.3025C135.127 27.4222 133.958 26.6938 132.281 26.6938Z" fill="white"/>
<path d="M154.32 50.5278H149.103C148.578 50.4939 148.154 50.0704 148.154 49.5622V22.6453C148.205 22.154 148.629 21.7644 149.171 21.7644H154.032C154.49 21.7814 154.862 22.1032 154.964 22.5098V26.6261H155.066C156.539 22.9502 158.589 21.1885 162.214 21.1885C164.569 21.1885 166.856 22.0355 168.329 24.3562C169.701 26.5075 169.701 30.1326 169.701 32.7243V49.6639C169.651 50.1382 169.21 50.5108 168.685 50.5108H163.434C162.959 50.477 162.553 50.1212 162.502 49.6639V35.062C162.502 32.1145 162.841 27.8118 159.216 27.8118C157.945 27.8118 156.76 28.6588 156.184 29.9632C155.438 31.6063 155.354 33.2494 155.354 35.062V49.5453C155.337 50.0874 154.879 50.5278 154.32 50.5278Z" fill="white"/>
<path d="M93.7969 45.5986C92.8313 44.2773 91.8149 43.1931 91.8149 40.7369V32.5551C91.8149 29.0994 92.0521 25.9148 89.5112 23.5433C87.5123 21.6122 84.1752 20.9346 81.6173 20.9346C76.6371 20.9346 71.064 22.7979 69.8952 28.9639C69.7766 29.6246 70.2509 29.9634 70.6744 30.065L75.7563 30.6071C76.2306 30.5901 76.5863 30.1158 76.671 29.6415C77.1114 27.5241 78.8901 26.4907 80.8889 26.4907C81.9731 26.4907 83.1927 26.8973 83.8364 27.8628C84.5818 28.947 84.4801 30.4207 84.4801 31.6573V32.3349C81.4479 32.6737 77.4671 32.9108 74.6213 34.1644C71.335 35.5873 69.0312 38.4839 69.0312 42.7358C69.0312 48.1903 72.453 50.9006 76.8743 50.9006C80.601 50.9006 82.6337 50.0198 85.5134 47.0892C86.4621 48.4613 86.7839 49.1389 88.5287 50.5788C88.9183 50.7821 89.4265 50.7651 89.7653 50.4602V50.4771C90.8155 49.5455 92.7128 47.8854 93.7799 47.0045C94.2034 46.6319 94.1357 46.0559 93.7969 45.5986ZM83.4807 43.227C82.6507 44.7008 81.3124 45.6155 79.8556 45.6155C77.8398 45.6155 76.671 44.074 76.671 41.821C76.671 37.349 80.6687 36.5359 84.4801 36.5359V37.6709C84.4632 39.7205 84.514 41.4145 83.4807 43.227Z" fill="white"/>
<path d="M25.0716 45.5986C24.1061 44.2773 23.0897 43.1931 23.0897 40.7369V32.5551C23.0897 29.0994 23.3269 25.9148 20.7859 23.5433C18.7701 21.6122 15.45 20.9346 12.8921 20.9346C7.91186 20.9346 2.33875 22.7979 1.16992 28.9639C1.05134 29.6246 1.52565 29.9634 1.94914 30.065L7.03101 30.6071C7.50531 30.5901 7.8441 30.1158 7.94574 29.6415C8.38617 27.5241 10.1648 26.4907 12.1637 26.4907C13.2478 26.4907 14.4675 26.8973 15.1112 27.8628C15.8396 28.947 15.7379 30.4207 15.7379 31.6573V32.3349C12.7058 32.6737 8.72496 32.8939 5.87912 34.1474C2.59284 35.5703 0.289062 38.467 0.289062 42.7188C0.289062 48.1734 3.72779 50.8837 8.13208 50.8837C11.8588 50.8837 13.8915 50.0028 16.7712 47.0723C17.7368 48.4444 18.0417 49.122 19.7865 50.5619C20.1761 50.7651 20.6843 50.7482 21.0231 50.4433L21.04 50.4602C22.0903 49.5285 23.9875 47.8685 25.0547 46.9876C25.4782 46.6319 25.4104 46.0559 25.0716 45.5986ZM14.7554 43.227C13.9254 44.7008 12.6041 45.6155 11.1304 45.6155C9.11457 45.6155 7.94574 44.074 7.94574 41.821C7.94574 37.349 11.9435 36.5359 15.7379 36.5359V37.6709C15.7379 39.7205 15.7888 41.4145 14.7554 43.227Z" fill="white"/>
</svg>